<?xml version="1.0" encoding="UTF-8" standalone="no"?>
<!-- This is a Stata 19.0 generated SVG file (http://www.stata.com) -->

<svg version="1.1" width="1.000in" height="1.000in" viewBox="0 0 720 720" xmlns="http://www.w3.org/2000/svg" xmlns:xlink="http://www.w3.org/1999/xlink">
	<desc>Stata Graph - Graph</desc>
	<rect x="0" y="0" width="720" height="720" style="fill:#FFFFFF;stroke:none"/>
	<rect x="0.00" y="0.00" width="720.00" height="720.00" style="fill:#FFFFFF"/>
	<rect x="1.50" y="1.50" width="717.00" height="717.00" style="fill:none;stroke:#FFFFFF;stroke-width:3.00"/>
	<rect x="112.59" y="81.81" width="582.21" height="523.22" style="fill:#FFFFFF"/>
	<rect x="114.09" y="83.31" width="579.21" height="520.22" style="fill:none;stroke:#FFFFFF;stroke-opacity:0.00;stroke-width:3.00"/>
	<line x1="128.43" y1="589.18" x2="139.16" y2="579.60" style="stroke:#B2182B;stroke-width:3.00"/>
	<line x1="144.54" y1="574.79" x2="155.29" y2="565.20" style="stroke:#B2182B;stroke-width:3.00"/>
	<line x1="160.65" y1="560.41" x2="171.41" y2="550.80" style="stroke:#B2182B;stroke-width:3.00"/>
	<line x1="176.78" y1="546.01" x2="187.52" y2="536.42" style="stroke:#B2182B;stroke-width:3.00"/>
	<line x1="192.89" y1="531.63" x2="203.65" y2="522.02" style="stroke:#B2182B;stroke-width:3.00"/>
	<line x1="209.00" y1="517.23" x2="219.76" y2="507.65" style="stroke:#B2182B;stroke-width:3.00"/>
	<line x1="225.14" y1="502.85" x2="235.87" y2="493.25" style="stroke:#B2182B;stroke-width:3.00"/>
	<line x1="241.25" y1="488.45" x2="252.00" y2="478.87" style="stroke:#B2182B;stroke-width:3.00"/>
	<line x1="257.36" y1="474.08" x2="268.11" y2="464.47" style="stroke:#B2182B;stroke-width:3.00"/>
	<line x1="273.49" y1="459.68" x2="284.22" y2="450.09" style="stroke:#B2182B;stroke-width:3.00"/>
	<line x1="289.60" y1="445.30" x2="300.33" y2="435.69" style="stroke:#B2182B;stroke-width:3.00"/>
	<line x1="305.71" y1="430.90" x2="316.46" y2="421.31" style="stroke:#B2182B;stroke-width:3.00"/>
	<line x1="321.84" y1="416.52" x2="332.57" y2="406.91" style="stroke:#B2182B;stroke-width:3.00"/>
	<line x1="337.95" y1="402.12" x2="348.68" y2="392.54" style="stroke:#B2182B;stroke-width:3.00"/>
	<line x1="354.06" y1="387.74" x2="364.82" y2="378.14" style="stroke:#B2182B;stroke-width:3.00"/>
	<line x1="370.17" y1="373.34" x2="380.93" y2="363.76" style="stroke:#B2182B;stroke-width:3.00"/>
	<line x1="386.30" y1="358.97" x2="397.04" y2="349.36" style="stroke:#B2182B;stroke-width:3.00"/>
	<line x1="402.41" y1="344.57" x2="413.17" y2="334.98" style="stroke:#B2182B;stroke-width:3.00"/>
	<line x1="418.52" y1="330.19" x2="429.28" y2="320.58" style="stroke:#B2182B;stroke-width:3.00"/>
	<line x1="434.66" y1="315.79" x2="445.39" y2="306.20" style="stroke:#B2182B;stroke-width:3.00"/>
	<line x1="450.77" y1="301.41" x2="461.52" y2="291.80" style="stroke:#B2182B;stroke-width:3.00"/>
	<line x1="466.88" y1="287.01" x2="477.63" y2="277.43" style="stroke:#B2182B;stroke-width:3.00"/>
	<line x1="483.01" y1="272.63" x2="493.74" y2="263.02" style="stroke:#B2182B;stroke-width:3.00"/>
	<line x1="499.12" y1="258.23" x2="509.85" y2="248.65" style="stroke:#B2182B;stroke-width:3.00"/>
	<line x1="515.23" y1="243.86" x2="525.98" y2="234.25" style="stroke:#B2182B;stroke-width:3.00"/>
	<line x1="531.36" y1="229.46" x2="542.09" y2="219.87" style="stroke:#B2182B;stroke-width:3.00"/>
	<line x1="547.47" y1="215.08" x2="558.20" y2="205.47" style="stroke:#B2182B;stroke-width:3.00"/>
	<line x1="563.58" y1="200.68" x2="574.34" y2="191.09" style="stroke:#B2182B;stroke-width:3.00"/>
	<line x1="579.69" y1="186.30" x2="590.45" y2="176.69" style="stroke:#B2182B;stroke-width:3.00"/>
	<line x1="595.82" y1="171.90" x2="606.55" y2="162.32" style="stroke:#B2182B;stroke-width:3.00"/>
	<line x1="611.93" y1="157.52" x2="622.69" y2="147.91" style="stroke:#B2182B;stroke-width:3.00"/>
	<line x1="628.04" y1="143.12" x2="638.80" y2="133.54" style="stroke:#B2182B;stroke-width:3.00"/>
	<line x1="644.17" y1="128.75" x2="654.91" y2="119.14" style="stroke:#B2182B;stroke-width:3.00"/>
	<line x1="660.26" y1="114.35" x2="671.02" y2="104.76" style="stroke:#B2182B;stroke-width:3.00"/>
	<line x1="676.37" y1="99.97" x2="678.96" y2="97.65" style="stroke:#B2182B;stroke-width:3.00"/>
	<defs>
		<path id="path_JGMLNcIf" d="M128.43 589.18 L128.43 589.18 L155.95 587.66 L183.47 580.66 L211.01 570.13 L238.52 557.75 L266.06 543.69 L293.58 528.43 L321.12 511.38 L348.64 493.47 L376.16 474.44 L403.70 454.41 L431.21 433.69 L458.75 411.59 L486.27 388.58 L513.79 362.66 L541.33 333.68 L568.85 301.64 L596.39 267.14 L623.90 228.60 L651.44 178.22 L678.96 97.65 L678.96 97.65 L651.44 173.34 L623.90 220.03 L596.39 256.68 L568.85 290.57 L541.33 322.04 L513.79 351.56 L486.27 377.46 L458.75 400.48 L431.21 422.87 L403.70 443.88 L376.16 464.00 L348.64 483.10 L321.12 501.39 L293.58 519.19 L266.06 536.76 L238.52 551.77 L211.01 566.08 L183.47 578.12 L155.95 586.91 L128.43 589.18 L128.43 589.18 Z" stroke-linejoin="round"/>
	</defs>
	<defs>
		<clipPath id="clipPath_RIyJWkyT">
			<use xlink:href="#path_JGMLNcIf"/>
		</clipPath>
	</defs>
	<use xlink:href="#path_JGMLNcIf" style="stroke:none;fill:#D1E5F0"/>
	<use xlink:href="#path_JGMLNcIf" style="fill:none;stroke:#67A9CF;stroke-width:6.00" clip-path="url(#clipPath_RIyJWkyT)"/>
	<defs>
		<path id="path_vDiAAHWb" d="M128.43 589.18 L128.43 589.18 L155.95 586.67 L183.47 580.54 L211.01 571.97 L238.52 561.35 L266.06 548.73 L293.58 534.22 L321.12 517.93 L348.64 499.79 L376.16 479.95 L403.70 458.46 L431.21 435.31 L458.75 410.24 L486.27 383.27 L513.79 354.26 L541.33 322.99 L568.85 288.97 L596.39 251.57 L623.90 209.77 L651.44 161.33 L678.96 97.65 L678.96 97.65 L651.44 159.66 L623.90 207.43 L596.39 248.85 L568.85 286.04 L541.33 319.97 L513.79 351.23 L486.27 380.23 L458.75 407.27 L431.21 432.43 L403.70 455.74 L376.16 477.34 L348.64 497.39 L321.12 515.72 L293.58 532.31 L266.06 547.07 L238.52 560.00 L211.01 570.96 L183.47 579.80 L155.95 586.28 L128.43 589.18 L128.43 589.18 Z" stroke-linejoin="round"/>
	</defs>
	<defs>
		<clipPath id="clipPath_gucrjNDj">
			<use xlink:href="#path_vDiAAHWb"/>
		</clipPath>
	</defs>
	<use xlink:href="#path_vDiAAHWb" style="stroke:none;fill:#D1E5F0"/>
	<use xlink:href="#path_vDiAAHWb" style="fill:none;stroke:#67A9CF;stroke-width:6.00" clip-path="url(#clipPath_gucrjNDj)"/>
	<path d=" M128.41 589.18 L155.95 587.29 L183.47 579.40 L210.98 568.13 L238.52 554.78 L266.04 540.23 L293.58 523.82 L321.10 506.39 L348.62 488.29 L376.16 469.24 L403.67 449.17 L431.21 428.29 L458.73 406.04 L486.27 383.04 L513.79 357.12 L541.30 327.87 L568.85 296.10 L596.36 261.92 L623.90 224.33 L651.42 175.79 L678.94 97.65" stroke-linejoin="round" style="fill:none;stroke:#2166AC;stroke-width:3.00"/>
	<path d=" M128.41 589.18 L155.95 586.49 L183.47 580.18 L210.98 571.48 L238.52 560.68 L266.04 547.92 L293.58 533.27 L321.10 516.83 L348.62 498.60 L376.16 478.67 L403.67 457.11 L431.21 433.89 L458.73 408.78 L486.27 381.76 L513.79 352.76 L541.30 321.50 L568.85 287.53 L596.36 250.22 L623.90 208.60 L651.42 160.49 L678.94 97.65" stroke-linejoin="round" style="fill:none;stroke:#B2182B;stroke-width:3.00"/>
	<line x1="112.59" y1="605.03" x2="112.59" y2="81.81" style="stroke:#000000;stroke-width:3.00"/>
	<text x="97.58" y="597.94" style="font-family:'Helvetica';font-size:25.00px;fill:#000000" text-anchor="end">0</text>
	<text x="97.58" y="499.64" style="font-family:'Helvetica';font-size:25.00px;fill:#000000" text-anchor="end">.2</text>
	<text x="97.58" y="401.31" style="font-family:'Helvetica';font-size:25.00px;fill:#000000" text-anchor="end">.4</text>
	<text x="97.58" y="303.01" style="font-family:'Helvetica';font-size:25.00px;fill:#000000" text-anchor="end">.6</text>
	<text x="97.58" y="204.71" style="font-family:'Helvetica';font-size:25.00px;fill:#000000" text-anchor="end">.8</text>
	<text x="97.58" y="106.40" style="font-family:'Helvetica';font-size:25.00px;fill:#000000" text-anchor="end">1</text>
	<text x="56.32" y="343.42" style="font-family:'Helvetica';font-size:25.00px;fill:#000000" transform="rotate(-90 56.32,343.42)" text-anchor="middle">cumulative outcome proportion</text>
	<line x1="112.59" y1="605.03" x2="694.80" y2="605.03" style="stroke:#000000;stroke-width:3.00"/>
	<text x="128.43" y="637.50" style="font-family:'Helvetica';font-size:25.00px;fill:#000000" text-anchor="middle">0</text>
	<text x="238.52" y="637.50" style="font-family:'Helvetica';font-size:25.00px;fill:#000000" text-anchor="middle">20</text>
	<text x="348.64" y="637.50" style="font-family:'Helvetica';font-size:25.00px;fill:#000000" text-anchor="middle">40</text>
	<text x="458.75" y="637.50" style="font-family:'Helvetica';font-size:25.00px;fill:#000000" text-anchor="middle">60</text>
	<text x="568.85" y="637.50" style="font-family:'Helvetica';font-size:25.00px;fill:#000000" text-anchor="middle">80</text>
	<text x="678.96" y="637.50" style="font-family:'Helvetica';font-size:25.00px;fill:#000000" text-anchor="middle">100</text>
	<text x="403.70" y="673.65" style="font-family:'Helvetica';font-size:25.00px;fill:#000000" text-anchor="middle">population percentage</text>
	<rect x="121.23" y="90.45" width="230.02" height="81.58" style="fill:#FFFFFF"/>
	<rect x="122.73" y="91.95" width="227.02" height="78.58" style="fill:none;stroke:#FFFFFF;stroke-opacity:0.00;stroke-width:3.00"/>
	<line x1="132.03" y1="113.74" x2="157.03" y2="113.74" style="stroke:#2166AC;stroke-width:3.00"/>
	<line x1="132.03" y1="148.75" x2="157.03" y2="148.75" style="stroke:#B2182B;stroke-width:3.00"/>
	<text x="172.01" y="122.49" style="font-family:'Helvetica';font-size:25.00px;fill:#000000">Model (Gini = .328)</text>
	<text x="172.01" y="157.50" style="font-family:'Helvetica';font-size:25.00px;fill:#000000">PSID (Gini = .329)</text>
	<text x="112.59" y="49.70" style="font-family:'Helvetica';font-size:35.01px;fill:#000000">1980</text>
</svg>
