<?xml version="1.0" encoding="UTF-8" standalone="no"?>
<!-- This is a Stata 19.0 generated SVG file (http://www.stata.com) -->

<svg version="1.1" width="3.575in" height="2.600in" viewBox="0 0 2574 1872" xmlns="http://www.w3.org/2000/svg" xmlns:xlink="http://www.w3.org/1999/xlink">
	<desc>Stata Graph - Graph</desc>
	<rect x="0" y="0" width="2574" height="1872" style="fill:#FFFFFF;stroke:none"/>
	<rect x="0.00" y="0.00" width="2573.92" height="1872.00" style="fill:#FFFFFF"/>
	<rect x="1.50" y="1.50" width="2570.92" height="1869.00" style="fill:none;stroke:#FFFFFF;stroke-width:3.00"/>
	<rect x="235.52" y="491.57" width="2272.84" height="1045.72" style="fill:#FFFFFF"/>
	<rect x="237.02" y="493.07" width="2269.84" height="1042.72" style="fill:none;stroke:#FFFFFF;stroke-opacity:0.00;stroke-width:3.00"/>
	<path d=" M276.62 1054.73 L376.21 1054.73 L475.79 1054.73 L575.37 1054.73 L674.87 959.25 L774.45 663.31 L874.03 698.70 L973.62 532.83 L1073.20 907.93 L1172.78 1151.82 L1272.36 1292.99 L1371.94 1174.42 L1471.44 1276.90 L1571.02 1413.89 L1670.61 1333.21 L1770.19 1343.27 L1869.77 1362.73 L1969.35 1362.73 L2068.93 1362.73 L2168.43 1362.73 L2268.02 1362.73 L2367.60 1362.73 L2467.18 1362.73" stroke-linejoin="round" style="fill:none;stroke:#FF0000;stroke-width:3.00"/>
	<path d=" M575.37 1054.73 L674.87 959.25 L774.45 663.31 L874.03 698.70 L973.62 532.83 L1073.20 907.93 L1172.78 1151.82 L1272.36 1292.99 L1371.94 1174.42 L1471.44 1276.90 L1571.02 1413.89 L1670.61 1333.21 L1770.19 1343.27 L1869.77 1362.73" stroke-linejoin="round" style="fill:none;stroke:#000000;stroke-width:26.21"/>
	<line x1="276.62" y1="1054.73" x2="314.03" y2="1054.73" style="stroke:#000000;stroke-width:5.62"/>
	<line x1="332.77" y1="1054.73" x2="370.17" y2="1054.73" style="stroke:#000000;stroke-width:5.62"/>
	<line x1="388.92" y1="1054.73" x2="426.32" y2="1054.73" style="stroke:#000000;stroke-width:5.62"/>
	<line x1="445.06" y1="1054.73" x2="475.79" y2="1054.73" style="stroke:#000000;stroke-width:5.62"/>
	<line x1="475.79" y1="1054.73" x2="482.46" y2="1054.73" style="stroke:#000000;stroke-width:5.62"/>
	<line x1="501.21" y1="1054.73" x2="538.61" y2="1054.73" style="stroke:#000000;stroke-width:5.62"/>
	<line x1="557.35" y1="1054.73" x2="575.37" y2="1054.73" style="stroke:#000000;stroke-width:5.62"/>
	<path d="" stroke-linejoin="round" style="fill:none;stroke:#000000;stroke-width:5.62"/>
	<line x1="1869.77" y1="1362.73" x2="1907.17" y2="1362.73" style="stroke:#000000;stroke-width:5.62"/>
	<line x1="1925.92" y1="1362.73" x2="1963.32" y2="1362.73" style="stroke:#000000;stroke-width:5.62"/>
	<line x1="1982.06" y1="1362.73" x2="2019.46" y2="1362.73" style="stroke:#000000;stroke-width:5.62"/>
	<line x1="2038.21" y1="1362.73" x2="2068.93" y2="1362.73" style="stroke:#000000;stroke-width:5.62"/>
	<line x1="2068.93" y1="1362.73" x2="2075.61" y2="1362.73" style="stroke:#000000;stroke-width:5.62"/>
	<line x1="2094.35" y1="1362.73" x2="2131.75" y2="1362.73" style="stroke:#000000;stroke-width:5.62"/>
	<line x1="2150.50" y1="1362.73" x2="2168.43" y2="1362.73" style="stroke:#000000;stroke-width:5.62"/>
	<line x1="2168.43" y1="1362.73" x2="2187.90" y2="1362.73" style="stroke:#000000;stroke-width:5.62"/>
	<line x1="2206.64" y1="1362.73" x2="2244.13" y2="1362.73" style="stroke:#000000;stroke-width:5.62"/>
	<line x1="2262.79" y1="1362.73" x2="2268.02" y2="1362.73" style="stroke:#000000;stroke-width:5.62"/>
	<line x1="2268.02" y1="1362.73" x2="2300.27" y2="1362.73" style="stroke:#000000;stroke-width:5.62"/>
	<line x1="2319.01" y1="1362.73" x2="2356.42" y2="1362.73" style="stroke:#000000;stroke-width:5.62"/>
	<line x1="2375.16" y1="1362.73" x2="2412.56" y2="1362.73" style="stroke:#000000;stroke-width:5.62"/>
	<line x1="2431.30" y1="1362.73" x2="2467.18" y2="1362.73" style="stroke:#000000;stroke-width:5.62"/>
	<path d="" stroke-linejoin="round" style="fill:none;stroke:#000000;stroke-width:5.62"/>
	<line x1="235.52" y1="1537.29" x2="235.52" y2="491.57" style="stroke:#000000;stroke-width:3.00"/>
	<text x="196.51" y="1523.43" style="font-family:'Helvetica';font-size:78.02px;fill:#000000" text-anchor="end">.07</text>
	<text x="196.51" y="1215.67" style="font-family:'Helvetica';font-size:78.02px;fill:#000000" text-anchor="end">.08</text>
	<text x="196.51" y="907.91" style="font-family:'Helvetica';font-size:78.02px;fill:#000000" text-anchor="end">.09</text>
	<text x="196.51" y="600.14" style="font-family:'Helvetica';font-size:78.02px;fill:#000000" text-anchor="end">.1</text>
	<line x1="235.52" y1="1537.29" x2="2508.36" y2="1537.29" style="stroke:#000000;stroke-width:3.00"/>
	<text x="276.71" y="1630.88" style="font-family:'Helvetica';font-size:78.02px;fill:#000000" text-anchor="middle">1935</text>
	<text x="774.53" y="1630.88" style="font-family:'Helvetica';font-size:78.02px;fill:#000000" text-anchor="middle">1960</text>
	<text x="1272.36" y="1630.88" style="font-family:'Helvetica';font-size:78.02px;fill:#000000" text-anchor="middle">1985</text>
	<text x="1770.19" y="1630.88" style="font-family:'Helvetica';font-size:78.02px;fill:#000000" text-anchor="middle">2010</text>
	<text x="2268.10" y="1630.88" style="font-family:'Helvetica';font-size:78.02px;fill:#000000" text-anchor="middle">2035</text>
	<text x="1371.94" y="1744.68" style="font-family:'Helvetica';font-size:87.76px;fill:#000000" text-anchor="middle">year</text>
	<rect x="257.96" y="88.00" width="1215.01" height="381.12" style="fill:#FFFFFF"/>
	<rect x="259.46" y="89.50" width="1212.01" height="378.12" style="fill:none;stroke:#FFFFFF;stroke-opacity:0.00;stroke-width:3.00"/>
	<text x="390.04" y="193.39" style="font-family:'Helvetica';font-size:90.97px;fill:#000000">Baseline</text>
	<text x="988.42" y="193.39" style="font-family:'Helvetica';font-size:90.97px;fill:#000000">Counterfactual</text>
	<text x="390.04" y="310.43" style="font-family:'Helvetica';font-size:90.97px;fill:#000000">data</text>
	<text x="988.42" y="310.43" style="font-family:'Helvetica';font-size:90.97px;fill:#000000">fixed at 1955</text>
	<text x="390.04" y="427.39" style="font-family:'Helvetica';font-size:90.97px;fill:#000000">extrapolation</text>
	<line x1="286.04" y1="278.56" x2="351.03" y2="278.56" style="stroke:#000000;stroke-width:26.21"/>
	<line x1="884.41" y1="278.56" x2="949.40" y2="278.56" style="stroke:#FF0000;stroke-width:3.00"/>
	<line x1="286.04" y1="395.52" x2="323.44" y2="395.52" style="stroke:#000000;stroke-width:5.62"/>
	<line x1="342.18" y1="395.52" x2="351.03" y2="395.52" style="stroke:#000000;stroke-width:5.62"/>
</svg>
